<?xml version="1.0"?>
<svg xmlns="http://www.w3.org/2000/svg" viewBox="0 0 24 24" enable-background="new 0 0 24 24">
    <path style="text-indent:0;text-align:start;line-height:normal;text-transform:none;block-progression:tb;-inkscape-font-specification:Bitstream Vera Sans" d="M 3.8125 3 A 1.0001 1.0001 0 0 0 3.71875 3.03125 A 1.0001 1.0001 0 0 0 3.625 3.0625 A 1.0001 1.0001 0 0 0 3.53125 3.09375 A 1.0001 1.0001 0 0 0 3.5 3.125 A 1.0001 1.0001 0 0 0 3.4375 3.15625 A 1.0001 1.0001 0 0 0 3.40625 3.1875 A 1.0001 1.0001 0 0 0 3.34375 3.21875 A 1.0001 1.0001 0 0 0 3.34375 3.25 A 1.0001 1.0001 0 0 0 3.28125 3.28125 A 1.0001 1.0001 0 0 0 3.25 3.3125 A 1.0001 1.0001 0 0 0 3.21875 3.34375 A 1.0001 1.0001 0 0 0 3.1875 3.40625 A 1.0001 1.0001 0 0 0 3.15625 3.4375 A 1.0001 1.0001 0 0 0 3.15625 3.46875 A 1.0001 1.0001 0 0 0 3.09375 3.53125 A 1.0001 1.0001 0 0 0 3.09375 3.5625 A 1.0001 1.0001 0 0 0 3.0625 3.59375 A 1.0001 1.0001 0 0 0 3.0625 3.65625 A 1.0001 1.0001 0 0 0 3.03125 3.6875 A 1.0001 1.0001 0 0 0 3.03125 3.75 A 1.0001 1.0001 0 0 0 3 3.78125 A 1.0001 1.0001 0 0 0 3 3.84375 A 1.0001 1.0001 0 0 0 3 4.1875 L 3 16 A 1.0001 1.0001 0 0 0 3.28125 16.71875 L 7.28125 20.71875 A 1.0001 1.0001 0 0 0 7.3125 20.71875 A 1.0001 1.0001 0 0 0 7.34375 20.78125 A 1.0001 1.0001 0 0 0 7.375 20.78125 A 1.0001 1.0001 0 0 0 7.4375 20.84375 A 1.0001 1.0001 0 0 0 7.53125 20.90625 A 1.0001 1.0001 0 0 0 7.59375 20.9375 A 1.0001 1.0001 0 0 0 7.625 20.9375 A 1.0001 1.0001 0 0 0 7.6875 20.96875 A 1.0001 1.0001 0 0 0 7.71875 20.96875 A 1.0001 1.0001 0 0 0 7.8125 21 A 1.0001 1.0001 0 0 0 7.84375 21 A 1.0001 1.0001 0 0 0 8.1875 21 L 20 21 A 1.0001 1.0001 0 0 0 21 20 L 21 8.1875 A 1.0001 1.0001 0 0 0 20.96875 7.71875 A 1.0001 1.0001 0 0 0 20.96875 7.6875 A 1.0001 1.0001 0 0 0 20.75 7.34375 A 1.0001 1.0001 0 0 0 20.71875 7.28125 L 20.6875 7.28125 A 1.0001 1.0001 0 0 0 20.625 7.21875 L 16.71875 3.28125 A 1.0001 1.0001 0 0 0 16 3 L 4 3 A 1.0001 1.0001 0 0 0 3.90625 3 A 1.0001 1.0001 0 0 0 3.8125 3 z M 5 6.4375 L 7 8.4375 L 7 17.5625 L 5 15.5625 L 5 6.4375 z M 9 9 L 19 9 L 19 19 L 9 19 L 9 9 z" overflow="visible" enable-background="accumulate" font-family="Bitstream Vera Sans"/>
</svg>
